<svg version="1" xmlns="http://www.w3.org/2000/svg" width="2765.333" height="2765.333" viewBox="0 0 2074.000000 2074.000000"><path d="M783.9 308.9c-.1.3-.3 119.8-.4 265.6-.1 145.7-.3 265.5-.4 266.2 0 .6-2.7-.6-5.8-2.7-26.1-17.3-67.6-37.5-101.8-49.5-15.2-5.4-42.5-13.6-49.5-14.9-1.4-.3-8.8-1.9-16.5-3.5-11.8-2.5-22.5-4.3-39-6.5-3.2-.5-10.9-1.3-19.2-2.1-22.7-2.1-72.2-2.1-85.4 0-1.3.2-6 .6-10.3 1-4.3.4-8.6.8-9.5 1-.9.1-4.5.6-8.1 1.1-3.6.4-6.7.8-7 .9-.3.1-3.9.7-8 1.4-37.7 6.5-72.5 16.7-109 31.8-19.6 8.2-49.1 22.8-57.2 28.5-1.4 1-2.9 1.8-3.1 1.8-.9 0-13.4 7.9-26.7 16.9-14 9.5-29.3 20.8-39 29.1-3.6 3-7.6 6.4-8.9 7.5-8.5 7.1-32.5 30.5-41.6 40.6-55 60.5-94.7 133.4-114.9 210.9-2 7.4-3.8 14.6-4 16-.2 1.4-.5 2.5-.6 2.5-.3 0-5.7 29.3-6.5 35.5-.3 2.5-.8 5.6-1 7-1 6.5-2.3 19.4-3.3 33-1.3 19.3-.6 72.2 1.2 81.5.2 1.1.7 5.4 1 9.5.7 8 5 35.5 6.6 43 19.2 87 53.5 157.7 108.1 223 9.2 11.1 39.6 42.4 50.4 52.1 16.4 14.6 39.9 32.4 60 45.4 6.6 4.3 13.2 8.6 14.7 9.6 1.5 1.1 2.9 1.9 3.2 1.9.3 0 2.7 1.3 5.4 2.9 11.4 6.7 32.1 17.5 43.2 22.4 26.1 11.6 52.8 21 78.5 27.7 14.9 3.9 39.8 9.2 49 10.5 2.3.3 5 .7 6.2.9 1.2.3 5.3.8 9 1.1 3.7.4 7 .9 7.3 1 .3.2 4.8.6 10 1s10.6 1 12 1.2c1.4.3 118.9.6 261.3.7l258.7.3V308.3H888.5c-57.5 0-104.6.3-104.6.6zM527.5 968.4c51.5 3.4 99 19.5 142.5 48.2 49 32.4 86.8 77.9 109.6 131.9l3.7 9 .1 199 .1 199h-146c-129.5 0-155.8-.3-165.5-1.9-1.4-.3-4.3-.7-6.5-1-2.2-.3-6.7-1-10-1.7-3.3-.6-6.9-1.2-8-1.4-5.2-.8-23.8-5.9-33.3-9.2-79.7-26.8-145.6-88.4-177.7-165.8-6.1-14.8-12.3-34.1-15-47-1.2-5.3-3.5-17.5-4.1-21.5-.3-2.5-.8-5.4-1-6.4-2.5-13.4-2.5-60.8 0-75.6.3-1.4.9-5.7 1.5-9.5.6-3.9 1.3-8.1 1.6-9.5 3.9-17.8 5.8-24.7 10.4-38.3 23.2-68.1 71.5-126 134.6-161.5 11.3-6.3 27.5-14 37.5-17.7 2.5-.9 5.4-2.1 6.5-2.5 5.3-2.3 35.7-10.8 40.9-11.5 1.2-.1 5-.8 8.6-1.5 3.6-.6 7.9-1.4 9.5-1.6 1.7-.2 4.8-.6 7-.8 2.2-.3 8.1-.8 13-1.2 5-.3 9.1-.7 9.2-.7.4-.4 21.6.1 30.8.7zM1077.6 308.9c-.2.3-.4 327.8-.4 727.7v727.1H1287l.2-298.1.3-298.1 4.8-12c4.2-10.2 14-30.8 18.8-39.5 3.2-5.7 13.6-21.6 17.6-26.9 1.9-2.5 4.4-5.9 5.6-7.6 5.1-6.9 14.8-17.8 25.1-28.1 41.2-41.1 93.1-68.8 149.6-79.9 6.9-1.3 14.8-2.7 17.5-3 2.8-.3 5.9-.8 7-1 10.1-2.1 54.8-2.1 66.3-.1.9.2 4 .7 6.7 1 9.2 1.3 10.9 1.6 32 6.2 5.9 1.2 24.3 7.1 34 10.9 17.1 6.6 29.7 12.9 49.4 24.6 21.5 12.7 52.7 39.9 70.6 61.6 22.4 27 39.2 56.5 50.8 88.8 3.7 10.2 10.1 32.5 11.1 38.6.3 1.9.8 4.5 1.1 5.9.7 3.2 1.4 8.2 2.2 14.5.4 2.7.7 125.9.7 273.6l.1 268.6 103 .1c56.7 0 103.9-.1 105-.3 2-.4 2-1.2 2-269.2 0-147.8-.3-269.3-.7-269.9-.4-.5-.9-4.1-1.2-8-.3-3.8-.8-8-1.1-9.4-.2-1.4-.7-5.2-1-8.5-.3-3.3-.8-6.7-1-7.5-.2-.8-.6-3.3-.9-5.5-.6-5.2-4.7-27.8-5.2-28.6-.2-.3-.6-2.1-.9-4-.3-1.9-1.2-5.9-2-8.9s-1.6-6.6-1.9-8c-.8-4.2-8.3-28.9-12.1-40-12.7-36.5-31.4-74.4-53.3-108-8.3-12.7-25.4-36.3-30.8-42.7-1.1-1.2-2.8-3.2-3.8-4.5-12.2-14.8-41.1-44.3-56.1-57.3-13.9-12-13-11.3-28-22.7-.5-.4-2.3-1.8-4-3.1-1.6-1.3-8.6-6.2-15.5-10.9-52.5-35.9-111.4-61.3-174-75.3-.8-.2-3.5-.8-6-1.4-7.7-1.7-33.6-5.9-41-6.6-1.9-.2-5.7-.6-8.5-.9-13.3-1.6-36.7-2.9-52.5-2.9-10.3 0-37.6 1.1-43.5 1.8-1.6.2-5.9.6-9.5.9-3.6.4-7.6.9-9 1.1-1.4.2-4.9.7-7.9 1-3 .4-6.1.8-7 1-.9.1-3.6.6-6.1 1-2.5.4-5.4.9-6.5 1.1-1.1.3-3.6.7-5.5 1-7.1 1.2-29.3 6.4-41.7 9.9-39.6 11.1-76.3 26.6-116.8 49.5-2.2 1.2-8.9 5.3-14.8 9.1-6 3.8-11.1 6.9-11.3 6.9-.2 0-.5-120.5-.6-267.8l-.3-267.7-104.3-.1c-57.3 0-104.4.2-104.6.5z"/></svg>